
<svg version="1.1" id="Layer_1" xmlns="http://www.w3.org/2000/svg" xmlns:xlink="http://www.w3.org/1999/xlink" x="0px" y="0px"
	 viewBox="0 0 960 560" style="enable-background:new 0 0 960 560;" xml:space="preserve">
<style type="text/css">
	.st0{fill:none;stroke:#FFFFFF;stroke-width:1;stroke-miterlimit:10;}
	.st0{
	  stroke-dasharray: 1000;
	  stroke-dashoffset: 1000;
	  -webkit-animation: dash 5s linear alternate infinite;
	  animation: dash 5s linear alternate infinite;
	}

	@-webkit-keyframes dash {
	  from{
	  	stroke-dashoffset:1000;

	  }
	  to {
	    stroke-dashoffset: 0;
	  }
	}
</style>
<g>
	<path class="st0" d="M83.5,372.4v2.5H23.7v-89.4H83v2.5H26.2v39.1h53.5v2.5H26.2v42.8H83.5z"/>
	<path class="st0" d="M91,374.9v-64.3h2.5v15.9h0.3c0.6-2.4,1.5-4.7,2.8-6.8c1.3-2.1,2.9-4,5-5.6c2.1-1.6,4.6-2.8,7.4-3.8
		c2.9-0.9,6.2-1.3,10.1-1.3v2.5c-4.4-0.2-8.2,0.4-11.5,1.8c-3.2,1.5-5.9,3.5-7.9,6c-2.1,2.5-3.6,5.5-4.6,8.8
		c-1,3.3-1.5,6.8-1.5,10.3v36.4H91z"/>
	<path class="st0" d="M123.5,298.2v-12.6h2.5v12.6H123.5z M123.5,374.9v-64.3h2.5v64.3H123.5z"/>
	<path class="st0" d="M188.9,362.7c-1.4,2.9-3.3,5.3-5.6,7.3c-2.3,2-5,3.5-8,4.6c-3,1.1-6.4,1.6-10.1,1.6c-4.6,0-8.7-0.9-12.2-2.6
		c-3.5-1.7-6.5-4-9-6.9c-2.4-2.9-4.3-6.3-5.5-10.2c-1.3-3.9-1.9-8-1.9-12.5c0-4.7,0.6-9.1,1.8-13.3c1.2-4.2,3-7.9,5.5-11.1
		c2.5-3.2,5.6-5.8,9.4-7.7c3.8-1.9,8.2-2.9,13.3-2.9c3,0,5.9,0.5,8.6,1.4c2.8,0.9,5.2,2.3,7.4,4c2.2,1.8,4,3.9,5.4,6.6
		c1.5,2.6,2.4,5.7,2.8,9.1h-2.5c-0.5-3.2-1.4-5.9-2.8-8.2c-1.3-2.3-3-4.2-4.9-5.8c-1.9-1.5-4.1-2.7-6.5-3.4c-2.4-0.8-5-1.1-7.6-1.1
		c-5.1,0-9.4,1-13,2.9c-3.5,2-6.4,4.5-8.5,7.6c-2.1,3.1-3.7,6.6-4.6,10.5c-1,3.9-1.4,7.7-1.4,11.5c0,3.9,0.6,7.7,1.7,11.3
		c1.1,3.6,2.8,6.8,4.9,9.5c2.2,2.8,4.9,4.9,8.1,6.6c3.3,1.6,7,2.4,11.3,2.4c3.2,0,6.1-0.5,8.9-1.4c2.8-1,5.2-2.4,7.3-4.2
		c2.1-1.8,3.9-4,5.2-6.6c1.3-2.5,2.1-5.4,2.4-8.7h2.5C191.2,356.6,190.4,359.8,188.9,362.7z"/>
	<path class="st0" d="M207.2,300.3c0,2.3-0.1,4.1-0.3,5.5c-0.2,1.4-0.5,2.6-0.9,3.6c-0.5,1-1,1.8-1.8,2.4c-0.7,0.6-1.6,1.2-2.7,1.8
		v-2.5c1.3-0.8,2.1-2.1,2.5-3.7c0.4-1.6,0.6-4,0.6-7.2v-14.8h2.5V300.3z"/>
	<path class="st0" d="M256.8,321.3c-1-2.3-2.4-4.1-4.3-5.6c-1.8-1.5-4-2.5-6.6-3.2c-2.5-0.7-5.4-1-8.5-1c-4.5,0-8.1,0.6-10.6,1.8
		c-2.6,1.2-4.5,2.6-5.8,4.1c-1.3,1.5-2,3.1-2.4,4.6c-0.3,1.5-0.5,2.5-0.5,3.1c0,3.2,0.6,5.6,1.9,7.3c1.3,1.7,3,3,5.2,3.9
		c2.3,0.9,4.7,1.7,7.3,2.4c2.6,0.7,5.7,1.5,9.2,2.4c2.5,0.7,5,1.4,7.4,2.1c2.5,0.7,4.7,1.7,6.6,2.9c2,1.3,3.5,2.8,4.8,4.8
		c1.2,1.9,1.8,4.4,1.8,7.5c0,3.3-0.7,6-2.1,8.3c-1.4,2.3-3.2,4.1-5.4,5.5c-2.2,1.4-4.7,2.4-7.5,3.1c-2.8,0.6-5.6,0.9-8.3,0.9
		c-8.6,0-15.1-1.9-19.5-5.6c-4.4-3.8-6.6-9.7-6.6-17.8h2.5c0,7.3,2,12.6,6.1,16c4,3.4,9.9,5.1,17.5,5.1c2.3,0,4.7-0.3,7.2-0.8
		c2.5-0.5,4.7-1.4,6.7-2.6c2-1.2,3.6-2.8,4.9-4.7c1.3-1.9,1.9-4.3,1.9-7c0-2.8-0.6-5.1-1.9-6.9c-1.3-1.8-3-3.2-5-4.3
		c-2-1.1-4.4-2-7.1-2.7c-2.7-0.7-5.4-1.3-8.1-2c-3.1-0.8-5.8-1.5-8.1-2.1c-2.3-0.7-4.4-1.4-6.3-2.3c-2.7-1.2-4.6-2.8-5.9-4.9
		c-1.3-2.1-1.9-4.9-1.9-8.4c0-1.8,0.4-3.6,1.1-5.5c0.8-1.9,2-3.7,3.8-5.3c1.8-1.6,4-2.9,6.8-3.9c2.8-1,6.1-1.5,10.1-1.5
		c7.2,0,12.9,1.6,17,4.9c4.2,3.3,6.3,8.5,6.3,15.6h-2.5C258.3,326.3,257.8,323.6,256.8,321.3z"/>
	<path class="st0" d="M389,310.6l-20.5,64.3h-3.3l-20-61.8h-0.3l-20.2,61.8h-3.5l-19.9-64.3h2.4l19.2,61.8h0.3l19.9-61.8h3.9
		l19.8,61.8h0.3l19.5-61.8H389z"/>
	<path class="st0" d="M395.2,355.3c1,3.7,2.4,6.9,4.4,9.7c2,2.8,4.6,4.9,7.8,6.5c3.2,1.6,7.1,2.4,11.6,2.4c6.8,0,12.4-1.8,16.8-5.3
		c4.5-3.5,7.2-8.9,8.3-16h2.5c-0.9,7.5-3.9,13.3-8.9,17.5c-5,4.1-11.2,6.2-18.5,6.2c-5,0.1-9.3-0.7-12.8-2.4c-3.5-1.7-6.4-4-8.7-7.1
		c-2.3-3-3.9-6.6-5-10.8c-1.1-4.1-1.6-8.6-1.6-13.3c0-5.3,0.8-10.1,2.4-14.3c1.6-4.2,3.7-7.7,6.3-10.6c2.6-2.9,5.6-5.1,9-6.6
		c3.4-1.5,6.9-2.3,10.5-2.3c5,0,9.3,1,13,2.9c3.6,1.9,6.6,4.5,8.9,7.6c2.3,3.2,4,6.8,5,10.9c1,4.1,1.5,8.3,1.3,12.8h-53.8
		C393.7,347.6,394.2,351.6,395.2,355.3z M443.3,329.5c-1.1-3.5-2.7-6.7-4.8-9.3c-2.1-2.7-4.8-4.8-7.9-6.3c-3.2-1.5-6.8-2.3-11-2.3
		c-3.5,0-6.8,0.7-9.8,2c-3,1.3-5.7,3.3-8,5.8c-2.3,2.5-4.2,5.6-5.6,9.2c-1.4,3.6-2.3,7.6-2.5,12.1h51.3
		C444.9,336.8,444.4,333.1,443.3,329.5z"/>
	<path class="st0" d="M460.2,328.6c1.5-5.8,4.5-10.6,8.9-14.1c4.4-3.6,10.1-5.4,16.9-5.4c4.4,0,8.3,0.9,11.8,2.8
		c3.4,1.8,6.3,4.3,8.6,7.4c2.3,3.1,4,6.7,5.3,10.8c1.2,4.1,1.8,8.4,1.8,12.9c0,4.8-0.6,9.3-1.9,13.4c-1.3,4.1-3.1,7.6-5.4,10.6
		c-2.4,3-5.3,5.3-8.6,6.9c-3.4,1.7-7.2,2.5-11.5,2.5c-6.6,0-12.1-1.8-16.6-5.4c-4.5-3.6-7.5-8.3-9.2-14H460v18h-2.5v-89.4h2.5v43.1
		H460.2z M461.7,354.8c1.2,3.8,2.9,7.1,5.1,9.9c2.2,2.8,4.9,5.1,8.2,6.8c3.3,1.7,6.9,2.5,11,2.5c4.2,0,7.8-0.8,11-2.5
		c3.1-1.7,5.7-3.9,7.8-6.8c2-2.9,3.6-6.2,4.6-10c1-3.8,1.6-7.7,1.6-11.8c0-3.8-0.5-7.5-1.4-11.2c-1-3.7-2.4-7.1-4.4-10
		c-2-3-4.6-5.4-7.7-7.3c-3.1-1.9-6.9-2.8-11.3-2.8c-7.8,0-14.1,2.7-18.9,8.1c-4.8,5.4-7.1,13.1-7.1,23.2
		C460,347,460.6,351,461.7,354.8z"/>
	<path class="st0" d="M559.5,396.9v-86.4h2.5v18h0.3c0.8-2.8,2-5.4,3.6-7.8c1.6-2.4,3.5-4.4,5.6-6.2c2.2-1.8,4.7-3.1,7.4-4.1
		c2.8-1,5.8-1.4,9.1-1.4c4.3,0,8.1,0.8,11.5,2.5c3.4,1.7,6.3,4,8.6,7c2.4,3,4.2,6.6,5.4,10.6c1.3,4.1,1.9,8.6,1.9,13.4
		c0,4.5-0.6,8.8-1.8,12.9c-1.2,4.1-3,7.7-5.3,10.8c-2.3,3.1-5.2,5.5-8.6,7.3c-3.4,1.8-7.3,2.7-11.8,2.7c-6.8,0-12.5-1.8-16.9-5.3
		c-4.4-3.5-7.4-8.2-8.9-14.1H562v40.1H559.5z M599.4,371.1c3.1-1.9,5.7-4.3,7.7-7.3c2-3,3.5-6.3,4.4-10c1-3.7,1.4-7.4,1.4-11.2
		c0-4.2-0.5-8.1-1.6-11.8c-1-3.7-2.6-7-4.6-9.9c-2-2.9-4.6-5.2-7.8-6.8c-3.1-1.7-6.8-2.5-11-2.5c-4.1,0-7.8,0.8-11,2.5
		c-3.3,1.7-6,3.9-8.2,6.8c-2.2,2.8-3.9,6.1-5.1,9.9c-1.2,3.8-1.8,7.7-1.8,11.9c0,10.1,2.4,17.8,7.1,23.2c4.8,5.4,11.1,8.1,18.9,8.1
		C592.5,373.9,596.2,373,599.4,371.1z"/>
	<path class="st0" d="M626.7,374.9v-64.3h2.5v15.9h0.3c0.6-2.4,1.5-4.7,2.8-6.8c1.3-2.1,2.9-4,5-5.6c2.1-1.6,4.6-2.8,7.4-3.8
		c2.9-0.9,6.2-1.3,10.1-1.3v2.5c-4.4-0.2-8.2,0.4-11.5,1.8c-3.2,1.5-5.9,3.5-7.9,6c-2.1,2.5-3.6,5.5-4.6,8.8
		c-1,3.3-1.5,6.8-1.5,10.3v36.4H626.7z"/>
	<path class="st0" d="M657.6,330c1.3-4,3.1-7.6,5.6-10.7c2.5-3.1,5.5-5.6,9.1-7.4c3.6-1.9,7.8-2.8,12.5-2.8c4.7,0,8.8,0.9,12.4,2.8
		c3.6,1.9,6.6,4.4,9.1,7.4c2.5,3.1,4.3,6.7,5.6,10.7c1.3,4,1.9,8.3,1.9,12.7c0,4.4-0.6,8.7-1.9,12.7c-1.3,4-3.1,7.6-5.6,10.7
		c-2.5,3.1-5.5,5.6-9.1,7.4c-3.6,1.8-7.8,2.8-12.5,2.8c-4.7,0-8.8-0.9-12.4-2.8c-3.6-1.8-6.6-4.3-9.1-7.4c-2.5-3.1-4.3-6.7-5.6-10.7
		c-1.3-4-1.9-8.3-1.9-12.7C655.8,338.3,656.4,334.1,657.6,330z M659.9,354.5c1.1,3.8,2.8,7.1,5.1,10c2.3,2.9,5,5.2,8.3,6.9
		c3.3,1.7,7.1,2.6,11.5,2.6c4.3,0,8-0.9,11.3-2.6c3.3-1.7,6.1-4,8.3-6.9c2.3-2.9,3.9-6.2,5.1-10c1.1-3.8,1.7-7.7,1.7-11.8
		c0-4-0.6-7.9-1.7-11.6c-1.1-3.8-2.8-7.1-5.1-10c-2.3-2.9-5-5.2-8.3-6.9c-3.3-1.8-7.1-2.6-11.3-2.6c-4.3,0-8.2,0.9-11.5,2.6
		c-3.3,1.8-6.1,4.1-8.3,6.9c-2.3,2.9-3.9,6.2-5.1,10c-1.1,3.8-1.7,7.6-1.7,11.6C658.3,346.8,658.8,350.8,659.9,354.5z"/>
	<path class="st0" d="M725.6,391.1c-0.7,1.7-1.7,3-3,3.9c-1.3,0.9-3,1.4-4.9,1.6c-1.9,0.2-4.1,0.3-6.5,0.3v-2.5c2.3,0,4.3-0.1,6-0.3
		c1.7-0.2,3-0.6,4-1.3c1-0.7,1.7-1.8,2.2-3.3c0.5-1.5,0.7-3.6,0.7-6.3v-72.7h2.5v73.6C726.6,387.1,726.3,389.4,725.6,391.1z
		 M724.1,298.2v-12.6h2.5v12.6H724.1z"/>
	<path class="st0" d="M740.7,355.3c1,3.7,2.4,6.9,4.4,9.7c2,2.8,4.6,4.9,7.8,6.5c3.2,1.6,7.1,2.4,11.6,2.4c6.8,0,12.4-1.8,16.8-5.3
		c4.5-3.5,7.2-8.9,8.3-16h2.5c-0.9,7.5-3.9,13.3-8.9,17.5c-5,4.1-11.2,6.2-18.5,6.2c-5,0.1-9.3-0.7-12.8-2.4c-3.5-1.7-6.4-4-8.7-7.1
		c-2.3-3-3.9-6.6-5-10.8c-1.1-4.1-1.6-8.6-1.6-13.3c0-5.3,0.8-10.1,2.4-14.3c1.6-4.2,3.7-7.7,6.3-10.6c2.6-2.9,5.6-5.1,9-6.6
		c3.4-1.5,6.9-2.3,10.5-2.3c5,0,9.3,1,13,2.9c3.6,1.9,6.6,4.5,8.9,7.6c2.3,3.2,4,6.8,5,10.9c1,4.1,1.5,8.3,1.3,12.8h-53.8
		C739.2,347.6,739.7,351.6,740.7,355.3z M788.8,329.5c-1.1-3.5-2.7-6.7-4.8-9.3c-2.1-2.7-4.8-4.8-7.9-6.3c-3.2-1.5-6.8-2.3-11-2.3
		c-3.5,0-6.8,0.7-9.8,2c-3,1.3-5.7,3.3-8,5.8c-2.3,2.5-4.2,5.6-5.6,9.2c-1.4,3.6-2.3,7.6-2.5,12.1h51.3
		C790.5,336.8,789.9,333.1,788.8,329.5z"/>
	<path class="st0" d="M852.2,362.7c-1.4,2.9-3.3,5.3-5.6,7.3c-2.3,2-5,3.5-8,4.6c-3,1.1-6.4,1.6-10.1,1.6c-4.6,0-8.7-0.9-12.2-2.6
		c-3.5-1.7-6.5-4-9-6.9c-2.4-2.9-4.3-6.3-5.5-10.2c-1.3-3.9-1.9-8-1.9-12.5c0-4.7,0.6-9.1,1.8-13.3c1.2-4.2,3-7.9,5.5-11.1
		c2.5-3.2,5.6-5.8,9.4-7.7c3.8-1.9,8.2-2.9,13.3-2.9c3,0,5.9,0.5,8.6,1.4c2.8,0.9,5.2,2.3,7.4,4c2.2,1.8,4,3.9,5.4,6.6
		c1.5,2.6,2.4,5.7,2.8,9.1h-2.5c-0.5-3.2-1.4-5.9-2.8-8.2c-1.3-2.3-3-4.2-4.9-5.8c-1.9-1.5-4.1-2.7-6.5-3.4c-2.4-0.8-5-1.1-7.6-1.1
		c-5.1,0-9.4,1-13,2.9c-3.5,2-6.4,4.5-8.5,7.6c-2.1,3.1-3.7,6.6-4.6,10.5c-1,3.9-1.4,7.7-1.4,11.5c0,3.9,0.6,7.7,1.7,11.3
		c1.1,3.6,2.8,6.8,4.9,9.5c2.2,2.8,4.9,4.9,8.1,6.6c3.3,1.6,7,2.4,11.3,2.4c3.2,0,6.1-0.5,8.9-1.4c2.8-1,5.2-2.4,7.3-4.2
		c2.1-1.8,3.9-4,5.2-6.6c1.3-2.5,2.1-5.4,2.4-8.7h2.5C854.5,356.6,853.6,359.8,852.2,362.7z"/>
	<path class="st0" d="M872.4,362.4c0,2.4,0.3,4.3,0.8,5.6c0.5,1.3,1.2,2.3,2.1,3c0.8,0.7,1.8,1.1,2.8,1.2c1,0.1,2,0.2,3,0.2
		c1.3,0,2.4,0,3.4-0.1c1,0,1.7-0.1,2.1-0.3v2.5c-0.8,0.1-1.5,0.2-2.2,0.2c-0.7,0.1-2,0.1-3.9,0.1c-2.9,0-5.4-0.9-7.4-2.6
		c-2-1.7-3.1-4.9-3.1-9.5v-49.8h-11.8v-2.5h11.8v-20.3h2.5v20.3H887v2.5h-14.5V362.4z"/>
	<path class="st0" d="M936.2,321.3c-1-2.3-2.4-4.1-4.3-5.6c-1.8-1.5-4-2.5-6.6-3.2c-2.5-0.7-5.4-1-8.4-1c-4.5,0-8.1,0.6-10.6,1.8
		c-2.6,1.2-4.5,2.6-5.8,4.1c-1.3,1.5-2,3.1-2.4,4.6c-0.3,1.5-0.5,2.5-0.5,3.1c0,3.2,0.6,5.6,1.9,7.3c1.3,1.7,3,3,5.2,3.9
		c2.3,0.9,4.7,1.7,7.3,2.4c2.6,0.7,5.7,1.5,9.2,2.4c2.5,0.7,5,1.4,7.4,2.1c2.5,0.7,4.7,1.7,6.6,2.9c2,1.3,3.5,2.8,4.8,4.8
		c1.2,1.9,1.8,4.4,1.8,7.5c0,3.3-0.7,6-2.1,8.3c-1.4,2.3-3.2,4.1-5.4,5.5c-2.2,1.4-4.7,2.4-7.5,3.1c-2.8,0.6-5.6,0.9-8.3,0.9
		c-8.6,0-15.1-1.9-19.5-5.6c-4.4-3.8-6.6-9.7-6.6-17.8h2.5c0,7.3,2,12.6,6.1,16c4,3.4,9.9,5.1,17.5,5.1c2.3,0,4.7-0.3,7.2-0.8
		c2.5-0.5,4.7-1.4,6.7-2.6c2-1.2,3.7-2.8,4.9-4.7c1.3-1.9,1.9-4.3,1.9-7c0-2.8-0.6-5.1-1.9-6.9c-1.3-1.8-3-3.2-5-4.3
		c-2-1.1-4.4-2-7.1-2.7c-2.7-0.7-5.4-1.3-8.1-2c-3.1-0.8-5.8-1.5-8.1-2.1c-2.3-0.7-4.4-1.4-6.3-2.3c-2.7-1.2-4.6-2.8-5.9-4.9
		c-1.3-2.1-1.9-4.9-1.9-8.4c0-1.8,0.4-3.6,1.1-5.5c0.8-1.9,2-3.7,3.8-5.3c1.8-1.6,4-2.9,6.8-3.9c2.8-1,6.1-1.5,10.1-1.5
		c7.2,0,12.9,1.6,17,4.9c4.2,3.3,6.3,8.5,6.3,15.6h-2.5C937.7,326.3,937.2,323.6,936.2,321.3z"/>
</g>
</svg>
