<?xml version="1.0" encoding="utf-8"?>
<!-- Generator: Adobe Illustrator 18.0.0, SVG Export Plug-In . SVG Version: 6.00 Build 0)  -->
<!DOCTYPE svg PUBLIC "-//W3C//DTD SVG 1.1//EN" "http://www.w3.org/Graphics/SVG/1.1/DTD/svg11.dtd">
<svg version="1.1" id="Layer_1" xmlns="http://www.w3.org/2000/svg" xmlns:xlink="http://www.w3.org/1999/xlink" x="0px" y="0px"
	 viewBox="0 0 800 600" style="enable-background:new 0 0 800 600;" xml:space="preserve">
<style type="text/css">
	.st0{fill:none;stroke:#000000;stroke-width:2;stroke-miterlimit:10;}
</style>
<path class="st0" d="M222,154.5c5.3,0,10.7,0.8,16.2,2.5c5.5,1.7,10.4,4.5,14.8,8.6c4.4,4.1,7.9,9.6,10.7,16.5
	c2.8,6.9,4.1,15.7,4.1,26.2c0,9.6-1.4,17.9-4.2,24.7c-2.8,6.8-6.6,12.4-11.3,16.7c-4.7,4.3-10.1,7.4-16.1,9.4c-6,2-12.3,3-18.8,3
	h-33V154.5H222z M218.1,259.1c6.3,0,12.3-1,18-3.1c5.7-2.1,10.7-5.2,14.9-9.3c4.3-4.2,7.6-9.4,10.1-15.8c2.5-6.4,3.7-13.9,3.7-22.5
	c0-10-1.3-18.3-3.8-24.9c-2.5-6.5-5.8-11.7-10-15.6c-4.1-3.9-8.8-6.6-13.9-8.1c-5.2-1.5-10.5-2.3-15.9-2.3h-33.9v101.6H218.1z
	 M354.1,259.1v3H282V154.5h71.5v3H285v47h64.4v3H285v51.6H354.1z M423.3,204.6v3H366v54.6h-3V154.5h66.3v3H366v47H423.3z
	 M438.5,154.5v107.6h-3V154.5H438.5z M459.3,154.5l73.6,103.9h0.3V154.5h3v107.6h-4.5l-73.6-103.9h-0.3v103.9h-3V154.5H459.3z
	 M624.5,259.1v3h-72.1V154.5h71.5v3h-68.4v47h64.4v3h-64.4v51.6H624.5z M198.3,335.4c5.3,0,10.7,0.8,16.2,2.5
	c5.5,1.7,10.4,4.5,14.8,8.6c4.4,4.1,7.9,9.6,10.7,16.5c2.8,6.9,4.1,15.7,4.1,26.2c0,9.6-1.4,17.9-4.2,24.7
	c-2.8,6.8-6.6,12.4-11.3,16.7c-4.7,4.3-10.1,7.4-16.1,9.4c-6,2-12.3,3-18.8,3h-33V335.4H198.3z M194.3,440.1c6.3,0,12.3-1,18-3.1
	c5.7-2.1,10.7-5.2,14.9-9.3c4.3-4.2,7.6-9.4,10.1-15.8c2.5-6.4,3.7-13.9,3.7-22.5c0-10-1.3-18.3-3.8-24.9c-2.5-6.5-5.8-11.7-10-15.6
	c-4.1-3.9-8.8-6.6-13.9-8.1c-5.2-1.5-10.5-2.3-15.9-2.3h-33.9v101.6H194.3z M330.3,440.1v3h-72.1V335.4h71.5v3h-68.4v47h64.4v3
	h-64.4v51.6H330.3z M408,351.6c-1.9-3.8-4.3-6.8-7.4-9.2c-3.1-2.4-6.7-4-10.9-5.1c-4.2-1-8.7-1.5-13.6-1.5c-3.7,0-7.6,0.4-11.6,1.1
	c-4,0.8-7.7,2.1-10.9,4c-3.3,1.9-6,4.4-8.1,7.6c-2.1,3.2-3.2,7.2-3.2,12c0,4.8,1.1,8.7,3.2,11.6c2.2,2.9,5,5.3,8.4,7.1
	c3.5,1.8,7.4,3.2,11.8,4.2c4.4,1,8.9,2.1,13.6,3.2c5,1.3,9.8,2.6,14.2,3.8c4.5,1.2,8.4,2.8,11.7,4.8c3.3,2,6,4.7,7.9,8
	c2,3.3,2.9,7.8,2.9,13.4c0,5.1-1.1,9.5-3.3,13.1c-2.2,3.6-5.1,6.6-8.7,9c-3.6,2.4-7.7,4.1-12.2,5.1s-9.1,1.6-13.7,1.6
	c-6.1,0-11.8-0.7-17-2.1c-5.2-1.4-9.6-3.6-13.4-6.7c-3.8-3.1-6.7-7-8.7-11.8c-2.1-4.8-3-10.7-2.9-17.5h3c0,6.4,1,11.9,2.9,16.4
	c1.9,4.5,4.6,8.1,8.1,10.9c3.5,2.8,7.6,4.9,12.4,6.1c4.8,1.3,10,1.9,15.8,1.9c4.2,0,8.4-0.5,12.6-1.4c4.2-1,7.9-2.5,11.2-4.6
	c3.3-2.1,6-4.8,8.1-8.1c2.1-3.3,3.1-7.3,3.1-11.9c0-5.4-1.2-9.7-3.5-12.9c-2.4-3.2-5.4-5.7-9-7.5c-3.7-1.9-7.7-3.3-12.2-4.2
	c-4.5-1-8.8-1.9-12.9-2.9c-4.3-1-8.6-2.1-13-3.2c-4.3-1.1-8.2-2.6-11.7-4.6c-3.5-2-6.3-4.6-8.4-7.8c-2.1-3.3-3.2-7.5-3.2-12.7
	c0-5.3,1.1-9.8,3.3-13.3c2.2-3.6,5.1-6.4,8.6-8.5c3.5-2.1,7.5-3.6,11.8-4.5c4.4-0.9,8.7-1.4,13-1.4c5.3,0,10.2,0.6,14.7,1.7
	c4.5,1.2,8.4,3,11.8,5.6c3.4,2.6,6.1,5.9,8.1,10.1c2,4.2,3.2,9.3,3.5,15.3h-3C410.9,360.1,409.9,355.4,408,351.6z M434.3,335.4
	v107.6h-3V335.4H434.3z M499.3,392.7h44.8v50.4h-3v-26.7h-0.3c-2.9,9.1-8.1,16.3-15.7,21.4c-7.5,5.1-16.6,7.7-27.3,7.7
	c-8.2,0-15.5-1.5-21.9-4.4s-11.6-7-15.8-12.1c-4.2-5.1-7.4-11-9.6-17.9c-2.2-6.8-3.2-14.1-3.2-21.9c0-7.8,1.2-15.2,3.5-22.1
	c2.3-6.9,5.6-12.9,10-17.9c4.3-5.1,9.6-9.1,15.8-12c6.2-2.9,13.3-4.4,21.3-4.4c6,0,11.6,0.9,16.7,2.6c5.1,1.7,9.5,4.1,13.4,7.3
	c3.9,3.2,7,7,9.5,11.4c2.5,4.4,4.1,9.4,5.1,14.9h-3c-0.9-5-2.5-9.6-4.9-13.6c-2.4-4.1-5.3-7.6-8.9-10.5c-3.6-2.9-7.7-5.1-12.4-6.7
	c-4.7-1.6-9.8-2.3-15.5-2.3c-7.5,0-14.2,1.4-20.1,4.2c-5.9,2.8-10.9,6.6-14.9,11.5c-4.1,4.8-7.2,10.5-9.3,17
	c-2.1,6.5-3.2,13.4-3.2,20.7c0,7.3,1,14.2,3,20.7c2,6.5,5,12.1,9,17c4,4.8,9,8.6,15,11.5c6,2.8,12.9,4.2,20.9,4.2
	c5.9,0,11.5-1,16.7-3.1c5.2-2.1,9.8-4.9,13.6-8.6c3.9-3.7,6.9-8,9.1-13.1c2.2-5.1,3.3-10.6,3.3-16.5v-5.6h-41.8V392.7z M564,335.4
	l73.6,103.9h0.3V335.4h3v107.6h-4.5l-73.6-103.9h-0.3v103.9h-3V335.4H564z"/>
</svg>
